<mxfile host="app.diagrams.net" modified="2023-05-02T02:25:42.458Z" agent="Mozilla/5.0 (X11; Linux x86_64; rv:109.0) Gecko/20100101 Firefox/111.0" etag="SlqRtkFkVQkH9ZEVKRxB" version="21.2.1" type="device">
  <diagram name="Page-1" id="TcttXybSV1eGj5G-cdnS">
    <mxGraphModel dx="2577" dy="1031" grid="1" gridSize="10" guides="1" tooltips="1" connect="1" arrows="1" fold="1" page="1" pageScale="1" pageWidth="850" pageHeight="1100" math="0" shadow="0">
      <root>
        <mxCell id="0" />
        <mxCell id="1" parent="0" />
        <mxCell id="3VDHPy8q7wlKfpkfXkKL-1" value="" style="rounded=0;whiteSpace=wrap;html=1;fillColor=none;" vertex="1" parent="1">
          <mxGeometry x="80" y="10" width="2030" height="660" as="geometry" />
        </mxCell>
        <mxCell id="3VDHPy8q7wlKfpkfXkKL-82" value="Aggregate" style="verticalAlign=top;align=left;spacingTop=8;spacingLeft=2;spacingRight=12;shape=cube;size=10;direction=south;fontStyle=4;html=1;whiteSpace=wrap;" vertex="1" parent="1">
          <mxGeometry x="1340" y="240" width="240" height="295" as="geometry" />
        </mxCell>
        <mxCell id="3VDHPy8q7wlKfpkfXkKL-3" value="Joiner" style="verticalAlign=top;align=left;spacingTop=8;spacingLeft=2;spacingRight=12;shape=cube;size=10;direction=south;fontStyle=4;html=1;whiteSpace=wrap;" vertex="1" parent="1">
          <mxGeometry x="850" y="240" width="240" height="295" as="geometry" />
        </mxCell>
        <mxCell id="3VDHPy8q7wlKfpkfXkKL-4" value="Loader socket" style="shape=umlBoundary;whiteSpace=wrap;html=1;" vertex="1" parent="1">
          <mxGeometry x="100" y="170" width="100" height="80" as="geometry" />
        </mxCell>
        <mxCell id="3VDHPy8q7wlKfpkfXkKL-5" style="edgeStyle=orthogonalEdgeStyle;rounded=0;orthogonalLoop=1;jettySize=auto;html=1;" edge="1" parent="1" source="3VDHPy8q7wlKfpkfXkKL-8" target="3VDHPy8q7wlKfpkfXkKL-4">
          <mxGeometry relative="1" as="geometry" />
        </mxCell>
        <mxCell id="3VDHPy8q7wlKfpkfXkKL-6" style="edgeStyle=orthogonalEdgeStyle;rounded=0;orthogonalLoop=1;jettySize=auto;html=1;entryX=0.5;entryY=1;entryDx=0;entryDy=0;entryPerimeter=0;" edge="1" parent="1" source="3VDHPy8q7wlKfpkfXkKL-8" target="3VDHPy8q7wlKfpkfXkKL-16">
          <mxGeometry relative="1" as="geometry" />
        </mxCell>
        <mxCell id="3VDHPy8q7wlKfpkfXkKL-7" style="edgeStyle=orthogonalEdgeStyle;rounded=0;orthogonalLoop=1;jettySize=auto;html=1;entryX=0.5;entryY=1;entryDx=0;entryDy=0;entryPerimeter=0;" edge="1" parent="1" source="3VDHPy8q7wlKfpkfXkKL-8" target="3VDHPy8q7wlKfpkfXkKL-18">
          <mxGeometry relative="1" as="geometry">
            <Array as="points">
              <mxPoint x="350" y="210" />
              <mxPoint x="350" y="338" />
            </Array>
          </mxGeometry>
        </mxCell>
        <mxCell id="3VDHPy8q7wlKfpkfXkKL-8" value="Loader" style="ellipse;shape=umlControl;whiteSpace=wrap;html=1;" vertex="1" parent="1">
          <mxGeometry x="260" y="165" width="80" height="90" as="geometry" />
        </mxCell>
        <mxCell id="3VDHPy8q7wlKfpkfXkKL-9" value="" style="group" vertex="1" connectable="0" parent="1">
          <mxGeometry x="510" y="160" width="90" height="95" as="geometry" />
        </mxCell>
        <mxCell id="3VDHPy8q7wlKfpkfXkKL-10" value="" style="ellipse;shape=umlControl;whiteSpace=wrap;html=1;" vertex="1" parent="3VDHPy8q7wlKfpkfXkKL-9">
          <mxGeometry x="10" width="80" height="90" as="geometry" />
        </mxCell>
        <mxCell id="3VDHPy8q7wlKfpkfXkKL-11" value="Stations consumer" style="ellipse;shape=umlControl;whiteSpace=wrap;html=1;" vertex="1" parent="3VDHPy8q7wlKfpkfXkKL-9">
          <mxGeometry y="5" width="80" height="90" as="geometry" />
        </mxCell>
        <mxCell id="3VDHPy8q7wlKfpkfXkKL-12" value="" style="group" vertex="1" connectable="0" parent="1">
          <mxGeometry x="510" y="290" width="90" height="95" as="geometry" />
        </mxCell>
        <mxCell id="3VDHPy8q7wlKfpkfXkKL-13" value="" style="ellipse;shape=umlControl;whiteSpace=wrap;html=1;" vertex="1" parent="3VDHPy8q7wlKfpkfXkKL-12">
          <mxGeometry x="10" width="80" height="90" as="geometry" />
        </mxCell>
        <mxCell id="3VDHPy8q7wlKfpkfXkKL-14" value="Trips consumer" style="ellipse;shape=umlControl;whiteSpace=wrap;html=1;" vertex="1" parent="3VDHPy8q7wlKfpkfXkKL-12">
          <mxGeometry y="5" width="80" height="90" as="geometry" />
        </mxCell>
        <mxCell id="3VDHPy8q7wlKfpkfXkKL-15" style="edgeStyle=orthogonalEdgeStyle;rounded=0;orthogonalLoop=1;jettySize=auto;html=1;" edge="1" parent="1" source="3VDHPy8q7wlKfpkfXkKL-16" target="3VDHPy8q7wlKfpkfXkKL-11">
          <mxGeometry relative="1" as="geometry" />
        </mxCell>
        <mxCell id="3VDHPy8q7wlKfpkfXkKL-16" value="" style="shape=cylinder3;whiteSpace=wrap;html=1;boundedLbl=1;backgroundOutline=1;size=5;rotation=90;" vertex="1" parent="1">
          <mxGeometry x="400" y="175" width="30" height="70" as="geometry" />
        </mxCell>
        <mxCell id="3VDHPy8q7wlKfpkfXkKL-17" style="edgeStyle=orthogonalEdgeStyle;rounded=0;orthogonalLoop=1;jettySize=auto;html=1;entryX=0.025;entryY=0.467;entryDx=0;entryDy=0;entryPerimeter=0;" edge="1" parent="1" source="3VDHPy8q7wlKfpkfXkKL-18" target="3VDHPy8q7wlKfpkfXkKL-14">
          <mxGeometry relative="1" as="geometry" />
        </mxCell>
        <mxCell id="3VDHPy8q7wlKfpkfXkKL-18" value="" style="shape=cylinder3;whiteSpace=wrap;html=1;boundedLbl=1;backgroundOutline=1;size=5;rotation=90;" vertex="1" parent="1">
          <mxGeometry x="400" y="302.5" width="30" height="70" as="geometry" />
        </mxCell>
        <mxCell id="3VDHPy8q7wlKfpkfXkKL-19" value="" style="group" vertex="1" connectable="0" parent="1">
          <mxGeometry x="740" y="290" width="90" height="95" as="geometry" />
        </mxCell>
        <mxCell id="3VDHPy8q7wlKfpkfXkKL-20" value="" style="ellipse;shape=umlControl;whiteSpace=wrap;html=1;" vertex="1" parent="3VDHPy8q7wlKfpkfXkKL-19">
          <mxGeometry x="10" width="80" height="90" as="geometry" />
        </mxCell>
        <mxCell id="3VDHPy8q7wlKfpkfXkKL-21" value="Filter by city" style="ellipse;shape=umlControl;whiteSpace=wrap;html=1;" vertex="1" parent="3VDHPy8q7wlKfpkfXkKL-19">
          <mxGeometry y="5" width="80" height="90" as="geometry" />
        </mxCell>
        <mxCell id="3VDHPy8q7wlKfpkfXkKL-22" value="" style="edgeStyle=orthogonalEdgeStyle;rounded=0;orthogonalLoop=1;jettySize=auto;html=1;" edge="1" parent="1" source="3VDHPy8q7wlKfpkfXkKL-23" target="3VDHPy8q7wlKfpkfXkKL-21">
          <mxGeometry relative="1" as="geometry" />
        </mxCell>
        <mxCell id="3VDHPy8q7wlKfpkfXkKL-23" value="" style="shape=cylinder3;whiteSpace=wrap;html=1;boundedLbl=1;backgroundOutline=1;size=5;rotation=90;" vertex="1" parent="1">
          <mxGeometry x="650" y="305" width="30" height="70" as="geometry" />
        </mxCell>
        <mxCell id="3VDHPy8q7wlKfpkfXkKL-24" value="" style="group" vertex="1" connectable="0" parent="1">
          <mxGeometry x="980" y="290" width="90" height="95" as="geometry" />
        </mxCell>
        <mxCell id="3VDHPy8q7wlKfpkfXkKL-25" value="" style="ellipse;shape=umlControl;whiteSpace=wrap;html=1;" vertex="1" parent="3VDHPy8q7wlKfpkfXkKL-24">
          <mxGeometry x="10" width="80" height="90" as="geometry" />
        </mxCell>
        <mxCell id="3VDHPy8q7wlKfpkfXkKL-26" value="Joiner by year and end station id" style="ellipse;shape=umlControl;whiteSpace=wrap;html=1;" vertex="1" parent="3VDHPy8q7wlKfpkfXkKL-24">
          <mxGeometry y="5" width="80" height="90" as="geometry" />
        </mxCell>
        <mxCell id="3VDHPy8q7wlKfpkfXkKL-27" value="" style="edgeStyle=orthogonalEdgeStyle;rounded=0;orthogonalLoop=1;jettySize=auto;html=1;" edge="1" parent="1" source="3VDHPy8q7wlKfpkfXkKL-28" target="3VDHPy8q7wlKfpkfXkKL-26">
          <mxGeometry relative="1" as="geometry" />
        </mxCell>
        <mxCell id="3VDHPy8q7wlKfpkfXkKL-28" value="" style="shape=cylinder3;whiteSpace=wrap;html=1;boundedLbl=1;backgroundOutline=1;size=5;rotation=90;" vertex="1" parent="1">
          <mxGeometry x="890" y="305" width="30" height="70" as="geometry" />
        </mxCell>
        <mxCell id="3VDHPy8q7wlKfpkfXkKL-29" style="edgeStyle=orthogonalEdgeStyle;rounded=0;orthogonalLoop=1;jettySize=auto;html=1;entryX=0.5;entryY=1;entryDx=0;entryDy=0;entryPerimeter=0;" edge="1" parent="1" source="3VDHPy8q7wlKfpkfXkKL-21" target="3VDHPy8q7wlKfpkfXkKL-28">
          <mxGeometry relative="1" as="geometry" />
        </mxCell>
        <mxCell id="3VDHPy8q7wlKfpkfXkKL-30" value="" style="edgeStyle=orthogonalEdgeStyle;rounded=0;orthogonalLoop=1;jettySize=auto;html=1;" edge="1" parent="1" source="3VDHPy8q7wlKfpkfXkKL-14" target="3VDHPy8q7wlKfpkfXkKL-23">
          <mxGeometry relative="1" as="geometry" />
        </mxCell>
        <mxCell id="3VDHPy8q7wlKfpkfXkKL-73" style="edgeStyle=orthogonalEdgeStyle;rounded=0;orthogonalLoop=1;jettySize=auto;html=1;entryX=0.509;entryY=0.122;entryDx=0;entryDy=0;entryPerimeter=0;" edge="1" parent="1" source="3VDHPy8q7wlKfpkfXkKL-32" target="3VDHPy8q7wlKfpkfXkKL-21">
          <mxGeometry relative="1" as="geometry" />
        </mxCell>
        <mxCell id="3VDHPy8q7wlKfpkfXkKL-32" value="" style="shape=cylinder3;whiteSpace=wrap;html=1;boundedLbl=1;backgroundOutline=1;size=5;rotation=90;" vertex="1" parent="1">
          <mxGeometry x="650" y="175" width="30" height="70" as="geometry" />
        </mxCell>
        <mxCell id="3VDHPy8q7wlKfpkfXkKL-33" value="" style="edgeStyle=orthogonalEdgeStyle;rounded=0;orthogonalLoop=1;jettySize=auto;html=1;" edge="1" parent="1" source="3VDHPy8q7wlKfpkfXkKL-11" target="3VDHPy8q7wlKfpkfXkKL-32">
          <mxGeometry relative="1" as="geometry" />
        </mxCell>
        <mxCell id="3VDHPy8q7wlKfpkfXkKL-34" value="" style="group" vertex="1" connectable="0" parent="1">
          <mxGeometry x="1220" y="290" width="90" height="95" as="geometry" />
        </mxCell>
        <mxCell id="3VDHPy8q7wlKfpkfXkKL-35" value="" style="ellipse;shape=umlControl;whiteSpace=wrap;html=1;" vertex="1" parent="3VDHPy8q7wlKfpkfXkKL-34">
          <mxGeometry x="10" width="80" height="90" as="geometry" />
        </mxCell>
        <mxCell id="3VDHPy8q7wlKfpkfXkKL-36" value="Haversine applier" style="ellipse;shape=umlControl;whiteSpace=wrap;html=1;" vertex="1" parent="3VDHPy8q7wlKfpkfXkKL-34">
          <mxGeometry y="5" width="80" height="90" as="geometry" />
        </mxCell>
        <mxCell id="3VDHPy8q7wlKfpkfXkKL-37" value="" style="edgeStyle=orthogonalEdgeStyle;rounded=0;orthogonalLoop=1;jettySize=auto;html=1;" edge="1" parent="1" source="3VDHPy8q7wlKfpkfXkKL-38" target="3VDHPy8q7wlKfpkfXkKL-36">
          <mxGeometry relative="1" as="geometry" />
        </mxCell>
        <mxCell id="3VDHPy8q7wlKfpkfXkKL-38" value="" style="shape=cylinder3;whiteSpace=wrap;html=1;boundedLbl=1;backgroundOutline=1;size=5;rotation=90;" vertex="1" parent="1">
          <mxGeometry x="1130" y="305" width="30" height="70" as="geometry" />
        </mxCell>
        <mxCell id="3VDHPy8q7wlKfpkfXkKL-39" value="" style="edgeStyle=orthogonalEdgeStyle;rounded=0;orthogonalLoop=1;jettySize=auto;html=1;" edge="1" parent="1" source="3VDHPy8q7wlKfpkfXkKL-26" target="3VDHPy8q7wlKfpkfXkKL-38">
          <mxGeometry relative="1" as="geometry" />
        </mxCell>
        <mxCell id="3VDHPy8q7wlKfpkfXkKL-40" value="" style="edgeStyle=orthogonalEdgeStyle;rounded=0;orthogonalLoop=1;jettySize=auto;html=1;" edge="1" parent="1" source="3VDHPy8q7wlKfpkfXkKL-78" target="3VDHPy8q7wlKfpkfXkKL-68">
          <mxGeometry relative="1" as="geometry" />
        </mxCell>
        <mxCell id="3VDHPy8q7wlKfpkfXkKL-41" value="" style="shape=cylinder3;whiteSpace=wrap;html=1;boundedLbl=1;backgroundOutline=1;size=5;rotation=90;" vertex="1" parent="1">
          <mxGeometry x="1380" y="305" width="30" height="70" as="geometry" />
        </mxCell>
        <mxCell id="3VDHPy8q7wlKfpkfXkKL-42" value="" style="edgeStyle=orthogonalEdgeStyle;rounded=0;orthogonalLoop=1;jettySize=auto;html=1;" edge="1" parent="1" source="3VDHPy8q7wlKfpkfXkKL-36" target="3VDHPy8q7wlKfpkfXkKL-41">
          <mxGeometry relative="1" as="geometry" />
        </mxCell>
        <mxCell id="3VDHPy8q7wlKfpkfXkKL-99" style="edgeStyle=orthogonalEdgeStyle;rounded=0;orthogonalLoop=1;jettySize=auto;html=1;" edge="1" parent="1" source="3VDHPy8q7wlKfpkfXkKL-44" target="3VDHPy8q7wlKfpkfXkKL-53">
          <mxGeometry relative="1" as="geometry">
            <Array as="points">
              <mxPoint x="2030" y="585" />
            </Array>
          </mxGeometry>
        </mxCell>
        <mxCell id="3VDHPy8q7wlKfpkfXkKL-44" value="Metrics consumer" style="ellipse;shape=umlControl;whiteSpace=wrap;html=1;" vertex="1" parent="1">
          <mxGeometry x="1990" y="295" width="80" height="90" as="geometry" />
        </mxCell>
        <mxCell id="3VDHPy8q7wlKfpkfXkKL-45" value="Code, year and station coordinates" style="ellipse;shape=umlEntity;whiteSpace=wrap;html=1;" vertex="1" parent="1">
          <mxGeometry x="980" y="440" width="80" height="80" as="geometry" />
        </mxCell>
        <mxCell id="3VDHPy8q7wlKfpkfXkKL-46" value="" style="edgeStyle=orthogonalEdgeStyle;rounded=0;orthogonalLoop=1;jettySize=auto;html=1;" edge="1" parent="1" source="3VDHPy8q7wlKfpkfXkKL-26" target="3VDHPy8q7wlKfpkfXkKL-45">
          <mxGeometry relative="1" as="geometry" />
        </mxCell>
        <mxCell id="3VDHPy8q7wlKfpkfXkKL-49" style="edgeStyle=orthogonalEdgeStyle;rounded=0;orthogonalLoop=1;jettySize=auto;html=1;" edge="1" parent="1" source="3VDHPy8q7wlKfpkfXkKL-50" target="3VDHPy8q7wlKfpkfXkKL-8">
          <mxGeometry relative="1" as="geometry" />
        </mxCell>
        <mxCell id="3VDHPy8q7wlKfpkfXkKL-50" value="" style="shape=cylinder3;whiteSpace=wrap;html=1;boundedLbl=1;backgroundOutline=1;size=5;rotation=90;" vertex="1" parent="1">
          <mxGeometry x="660" y="60" width="30" height="70" as="geometry" />
        </mxCell>
        <mxCell id="3VDHPy8q7wlKfpkfXkKL-51" style="edgeStyle=orthogonalEdgeStyle;rounded=0;orthogonalLoop=1;jettySize=auto;html=1;entryX=0.5;entryY=0;entryDx=0;entryDy=0;entryPerimeter=0;" edge="1" parent="1" source="3VDHPy8q7wlKfpkfXkKL-26" target="3VDHPy8q7wlKfpkfXkKL-50">
          <mxGeometry relative="1" as="geometry">
            <Array as="points">
              <mxPoint x="1030" y="95" />
            </Array>
          </mxGeometry>
        </mxCell>
        <mxCell id="3VDHPy8q7wlKfpkfXkKL-52" style="edgeStyle=orthogonalEdgeStyle;rounded=0;orthogonalLoop=1;jettySize=auto;html=1;" edge="1" parent="1" source="3VDHPy8q7wlKfpkfXkKL-53">
          <mxGeometry relative="1" as="geometry">
            <mxPoint x="300" y="260" as="targetPoint" />
          </mxGeometry>
        </mxCell>
        <mxCell id="3VDHPy8q7wlKfpkfXkKL-53" value="" style="shape=cylinder3;whiteSpace=wrap;html=1;boundedLbl=1;backgroundOutline=1;size=5;rotation=90;" vertex="1" parent="1">
          <mxGeometry x="650" y="550" width="30" height="70" as="geometry" />
        </mxCell>
        <mxCell id="3VDHPy8q7wlKfpkfXkKL-54" value="Trips" style="text;html=1;align=center;verticalAlign=middle;resizable=0;points=[];autosize=1;strokeColor=none;fillColor=none;" vertex="1" parent="1">
          <mxGeometry x="390" y="355" width="50" height="30" as="geometry" />
        </mxCell>
        <mxCell id="3VDHPy8q7wlKfpkfXkKL-55" value="Stations" style="text;html=1;align=center;verticalAlign=middle;resizable=0;points=[];autosize=1;strokeColor=none;fillColor=none;" vertex="1" parent="1">
          <mxGeometry x="380" y="230" width="70" height="30" as="geometry" />
        </mxCell>
        <mxCell id="3VDHPy8q7wlKfpkfXkKL-56" value="static data ack" style="text;html=1;align=center;verticalAlign=middle;resizable=0;points=[];autosize=1;strokeColor=none;fillColor=none;" vertex="1" parent="1">
          <mxGeometry x="625" y="120" width="100" height="30" as="geometry" />
        </mxCell>
        <mxCell id="3VDHPy8q7wlKfpkfXkKL-57" value="metrics" style="text;html=1;align=center;verticalAlign=middle;resizable=0;points=[];autosize=1;strokeColor=none;fillColor=none;" vertex="1" parent="1">
          <mxGeometry x="635" y="610" width="60" height="30" as="geometry" />
        </mxCell>
        <mxCell id="3VDHPy8q7wlKfpkfXkKL-60" value="" style="edgeStyle=orthogonalEdgeStyle;rounded=0;orthogonalLoop=1;jettySize=auto;html=1;" edge="1" parent="1" source="3VDHPy8q7wlKfpkfXkKL-61" target="3VDHPy8q7wlKfpkfXkKL-4">
          <mxGeometry relative="1" as="geometry" />
        </mxCell>
        <mxCell id="3VDHPy8q7wlKfpkfXkKL-61" value="Client" style="shape=umlActor;verticalLabelPosition=bottom;verticalAlign=top;html=1;outlineConnect=0;" vertex="1" parent="1">
          <mxGeometry x="-30" y="180" width="30" height="60" as="geometry" />
        </mxCell>
        <mxCell id="3VDHPy8q7wlKfpkfXkKL-62" value="&lt;div&gt;start_station_code,&lt;/div&gt;&lt;div&gt;&amp;nbsp;end_station_code, &lt;br&gt;&lt;/div&gt;&lt;div&gt;end_station_name,&lt;/div&gt;&lt;div&gt;&amp;nbsp;city, &lt;br&gt;&lt;/div&gt;&lt;div&gt;yearid&lt;/div&gt;" style="text;html=1;align=center;verticalAlign=middle;resizable=0;points=[];autosize=1;strokeColor=none;fillColor=none;" vertex="1" parent="1">
          <mxGeometry x="600" y="357.5" width="130" height="90" as="geometry" />
        </mxCell>
        <mxCell id="3VDHPy8q7wlKfpkfXkKL-66" value="" style="group" vertex="1" connectable="0" parent="1">
          <mxGeometry x="1460" y="290" width="90" height="95" as="geometry" />
        </mxCell>
        <mxCell id="3VDHPy8q7wlKfpkfXkKL-67" value="" style="ellipse;shape=umlControl;whiteSpace=wrap;html=1;" vertex="1" parent="3VDHPy8q7wlKfpkfXkKL-66">
          <mxGeometry x="10" width="80" height="90" as="geometry" />
        </mxCell>
        <mxCell id="3VDHPy8q7wlKfpkfXkKL-68" value="Aggregate by distance" style="ellipse;shape=umlControl;whiteSpace=wrap;html=1;" vertex="1" parent="3VDHPy8q7wlKfpkfXkKL-66">
          <mxGeometry y="5" width="80" height="90" as="geometry" />
        </mxCell>
        <mxCell id="3VDHPy8q7wlKfpkfXkKL-94" value="" style="edgeStyle=orthogonalEdgeStyle;rounded=0;orthogonalLoop=1;jettySize=auto;html=1;" edge="1" parent="1" source="3VDHPy8q7wlKfpkfXkKL-70" target="3VDHPy8q7wlKfpkfXkKL-93">
          <mxGeometry relative="1" as="geometry" />
        </mxCell>
        <mxCell id="3VDHPy8q7wlKfpkfXkKL-70" value="" style="shape=cylinder3;whiteSpace=wrap;html=1;boundedLbl=1;backgroundOutline=1;size=5;rotation=90;" vertex="1" parent="1">
          <mxGeometry x="1650" y="305" width="30" height="70" as="geometry" />
        </mxCell>
        <mxCell id="3VDHPy8q7wlKfpkfXkKL-71" value="" style="edgeStyle=orthogonalEdgeStyle;rounded=0;orthogonalLoop=1;jettySize=auto;html=1;" edge="1" parent="1" source="3VDHPy8q7wlKfpkfXkKL-68" target="3VDHPy8q7wlKfpkfXkKL-70">
          <mxGeometry relative="1" as="geometry" />
        </mxCell>
        <mxCell id="3VDHPy8q7wlKfpkfXkKL-72" value="end_station_name, avg. distance" style="text;html=1;align=center;verticalAlign=middle;resizable=0;points=[];autosize=1;strokeColor=none;fillColor=none;" vertex="1" parent="1">
          <mxGeometry x="1565" y="372.5" width="200" height="30" as="geometry" />
        </mxCell>
        <mxCell id="3VDHPy8q7wlKfpkfXkKL-77" style="edgeStyle=orthogonalEdgeStyle;rounded=0;orthogonalLoop=1;jettySize=auto;html=1;entryX=0.007;entryY=0.665;entryDx=0;entryDy=0;entryPerimeter=0;" edge="1" parent="1" source="3VDHPy8q7wlKfpkfXkKL-74" target="3VDHPy8q7wlKfpkfXkKL-26">
          <mxGeometry relative="1" as="geometry" />
        </mxCell>
        <mxCell id="3VDHPy8q7wlKfpkfXkKL-74" value="" style="shape=cylinder3;whiteSpace=wrap;html=1;boundedLbl=1;backgroundOutline=1;size=5;rotation=90;" vertex="1" parent="1">
          <mxGeometry x="890" y="417.5" width="30" height="70" as="geometry" />
        </mxCell>
        <mxCell id="3VDHPy8q7wlKfpkfXkKL-76" style="edgeStyle=orthogonalEdgeStyle;rounded=0;orthogonalLoop=1;jettySize=auto;html=1;entryX=0.5;entryY=1;entryDx=0;entryDy=0;entryPerimeter=0;" edge="1" parent="1" source="3VDHPy8q7wlKfpkfXkKL-21" target="3VDHPy8q7wlKfpkfXkKL-74">
          <mxGeometry relative="1" as="geometry" />
        </mxCell>
        <mxCell id="3VDHPy8q7wlKfpkfXkKL-78" value="Hashed" style="text;html=1;align=center;verticalAlign=middle;resizable=0;points=[];autosize=1;strokeColor=none;fillColor=none;" vertex="1" parent="1">
          <mxGeometry x="1365" y="325" width="60" height="30" as="geometry" />
        </mxCell>
        <mxCell id="3VDHPy8q7wlKfpkfXkKL-83" value="End station name and average distance" style="ellipse;shape=umlEntity;whiteSpace=wrap;html=1;" vertex="1" parent="1">
          <mxGeometry x="1460" y="432.5" width="80" height="80" as="geometry" />
        </mxCell>
        <mxCell id="3VDHPy8q7wlKfpkfXkKL-84" value="" style="edgeStyle=orthogonalEdgeStyle;rounded=0;orthogonalLoop=1;jettySize=auto;html=1;" edge="1" parent="1" source="3VDHPy8q7wlKfpkfXkKL-68" target="3VDHPy8q7wlKfpkfXkKL-83">
          <mxGeometry relative="1" as="geometry" />
        </mxCell>
        <mxCell id="3VDHPy8q7wlKfpkfXkKL-85" value="code, city, yearid, lat, long" style="text;html=1;align=center;verticalAlign=middle;resizable=0;points=[];autosize=1;strokeColor=none;fillColor=none;" vertex="1" parent="1">
          <mxGeometry x="595" y="240" width="160" height="30" as="geometry" />
        </mxCell>
        <mxCell id="3VDHPy8q7wlKfpkfXkKL-86" value="code, yearid, lat, long" style="text;html=1;align=center;verticalAlign=middle;resizable=0;points=[];autosize=1;strokeColor=none;fillColor=none;" vertex="1" parent="1">
          <mxGeometry x="835" y="370" width="140" height="30" as="geometry" />
        </mxCell>
        <mxCell id="3VDHPy8q7wlKfpkfXkKL-87" value="&lt;div&gt;start_station_code, &lt;br&gt;&lt;/div&gt;&lt;div&gt;end_station_code,&lt;/div&gt;&lt;div&gt;end_station_name,&lt;/div&gt;&lt;div&gt;yearid&lt;br&gt;&lt;/div&gt;" style="text;html=1;align=center;verticalAlign=middle;resizable=0;points=[];autosize=1;strokeColor=none;fillColor=none;" vertex="1" parent="1">
          <mxGeometry x="845" y="465" width="130" height="70" as="geometry" />
        </mxCell>
        <mxCell id="3VDHPy8q7wlKfpkfXkKL-88" value="&lt;div&gt;end_station_name, &lt;br&gt;&lt;/div&gt;&lt;div&gt;start_lat, start_long, &lt;br&gt;&lt;/div&gt;&lt;div&gt;end_lat, end_long&lt;br&gt;&lt;/div&gt;" style="text;html=1;align=center;verticalAlign=middle;resizable=0;points=[];autosize=1;strokeColor=none;fillColor=none;" vertex="1" parent="1">
          <mxGeometry x="1080" y="367.5" width="130" height="60" as="geometry" />
        </mxCell>
        <mxCell id="3VDHPy8q7wlKfpkfXkKL-89" value="&lt;div&gt;end_station_name, &lt;br&gt;&lt;/div&gt;&lt;div&gt;distance&lt;br&gt;&lt;/div&gt;" style="text;html=1;align=center;verticalAlign=middle;resizable=0;points=[];autosize=1;strokeColor=none;fillColor=none;" vertex="1" parent="1">
          <mxGeometry x="1330" y="367.5" width="130" height="40" as="geometry" />
        </mxCell>
        <mxCell id="3VDHPy8q7wlKfpkfXkKL-91" value="" style="group" vertex="1" connectable="0" parent="1">
          <mxGeometry x="1760" y="290" width="90" height="95" as="geometry" />
        </mxCell>
        <mxCell id="3VDHPy8q7wlKfpkfXkKL-92" value="" style="ellipse;shape=umlControl;whiteSpace=wrap;html=1;" vertex="1" parent="3VDHPy8q7wlKfpkfXkKL-91">
          <mxGeometry x="10" width="80" height="90" as="geometry" />
        </mxCell>
        <mxCell id="3VDHPy8q7wlKfpkfXkKL-93" value="Filter by distance" style="ellipse;shape=umlControl;whiteSpace=wrap;html=1;" vertex="1" parent="3VDHPy8q7wlKfpkfXkKL-91">
          <mxGeometry y="5" width="80" height="90" as="geometry" />
        </mxCell>
        <mxCell id="3VDHPy8q7wlKfpkfXkKL-97" value="" style="edgeStyle=orthogonalEdgeStyle;rounded=0;orthogonalLoop=1;jettySize=auto;html=1;" edge="1" parent="1" source="3VDHPy8q7wlKfpkfXkKL-95" target="3VDHPy8q7wlKfpkfXkKL-44">
          <mxGeometry relative="1" as="geometry" />
        </mxCell>
        <mxCell id="3VDHPy8q7wlKfpkfXkKL-95" value="" style="shape=cylinder3;whiteSpace=wrap;html=1;boundedLbl=1;backgroundOutline=1;size=5;rotation=90;" vertex="1" parent="1">
          <mxGeometry x="1900" y="305" width="30" height="70" as="geometry" />
        </mxCell>
        <mxCell id="3VDHPy8q7wlKfpkfXkKL-96" value="" style="edgeStyle=orthogonalEdgeStyle;rounded=0;orthogonalLoop=1;jettySize=auto;html=1;" edge="1" parent="1" source="3VDHPy8q7wlKfpkfXkKL-93" target="3VDHPy8q7wlKfpkfXkKL-95">
          <mxGeometry relative="1" as="geometry" />
        </mxCell>
        <mxCell id="3VDHPy8q7wlKfpkfXkKL-98" value="end_station_name, avg. distance" style="text;html=1;align=center;verticalAlign=middle;resizable=0;points=[];autosize=1;strokeColor=none;fillColor=none;" vertex="1" parent="1">
          <mxGeometry x="1815" y="375" width="200" height="30" as="geometry" />
        </mxCell>
      </root>
    </mxGraphModel>
  </diagram>
</mxfile>
